<svg width="34" height="34" viewBox="0 0 34 34" fill="none" xmlns="http://www.w3.org/2000/svg">
<path d="M11.0151 27.4808C11.0132 27.482 11.0114 27.4831 11.0097 27.4841C11.0038 27.4815 10.9971 27.4779 10.9896 27.4732C10.9892 27.4729 10.9887 27.4726 10.9883 27.4724C10.9487 27.4466 10.8722 27.3699 10.8722 27.2411C10.8722 27.2217 10.8738 27.2034 10.8766 27.1864C10.914 27.1862 10.9511 27.1854 10.9881 27.1842C10.9882 27.1842 10.9882 27.1842 10.9883 27.1842C10.9946 27.184 11.0009 27.1838 11.0072 27.1836C11.0101 27.1835 11.0129 27.1834 11.0157 27.1833C11.0521 27.1819 11.0884 27.18 11.1244 27.1778C11.1294 27.199 11.1319 27.2203 11.1319 27.2411C11.1319 27.3611 11.0713 27.4343 11.0354 27.4655C11.0297 27.4705 11.0246 27.4744 11.0204 27.4772C11.0188 27.4784 11.0172 27.4794 11.0157 27.4804C11.0155 27.4805 11.0153 27.4807 11.0151 27.4808ZM5.22275 22.5271C5.22252 22.527 5.22229 22.527 5.18226 23.0254L5.22229 22.527C5.21101 22.5261 5.1997 22.5256 5.18838 22.5255C4.95668 22.5226 4.75351 22.5379 4.58186 22.5779C4.41701 22.6164 4.2279 22.6898 4.08647 22.8455C3.9247 23.0237 3.88556 23.2412 3.91586 23.4297C3.94254 23.5957 4.0202 23.7333 4.08511 23.8281C4.21671 24.0202 4.40426 24.1899 4.53382 24.2976C4.60297 24.3552 4.66532 24.4029 4.71065 24.4365C4.73343 24.4534 4.75221 24.4669 4.76577 24.4766L4.78211 24.4881L4.78711 24.4916L4.78877 24.4927L4.78938 24.4931L4.78964 24.4933C4.78975 24.4934 4.78985 24.4935 5.07258 24.0811L4.78985 24.4935C4.81352 24.5097 4.83854 24.5238 4.86464 24.5358C5.27653 24.7241 5.68677 25.23 6.0176 25.7845C6.17461 26.0476 6.29958 26.2972 6.3853 26.4813C6.428 26.573 6.46058 26.6476 6.48215 26.6985C6.49293 26.7239 6.50094 26.7433 6.50607 26.7559L6.50835 26.7616C7.1133 28.5783 8.83273 29.1287 10.2115 29.2606C10.9176 29.3282 11.5841 29.2933 12.0705 29.2427C12.1463 29.2348 12.2181 29.2265 12.2852 29.2181C12.2869 29.8255 12.2907 30.5089 12.2946 31.1207C12.2961 31.3647 12.2976 31.5971 12.299 31.8087C12.3023 32.3093 12.3048 32.6937 12.3048 32.8416C12.3048 32.9606 12.2624 33.0595 12.2029 33.114C12.1602 33.1533 12.042 33.2316 11.7411 33.1845C5.13188 30.9529 0.5 24.6495 0.5 17.2742C0.5 8.04484 7.54697 1.0484 16.7806 1.0484C26.0314 1.0484 33.5 8.06154 33.5 17.2742C33.5 24.6563 28.9984 30.9549 22.3758 33.1708C22.0791 33.2177 21.9599 33.1402 21.9153 33.0996C21.8541 33.0436 21.8117 32.9441 21.8117 32.8278C21.8117 32.6435 21.8139 32.21 21.8169 31.6275C21.8185 31.3269 21.8202 30.9866 21.822 30.6204C21.8271 29.5466 21.8323 28.2535 21.8323 27.0972C21.8323 25.913 21.5606 24.9841 21.1414 24.3056C22.7701 24.1007 24.4681 23.7811 25.8199 22.8613C27.4849 21.7282 28.5363 19.76 28.5363 16.342C28.5363 15.3375 28.3554 14.5545 28.0124 13.854C27.7157 13.2481 27.307 12.7244 26.8371 12.1912C27.0801 11.4107 27.416 9.64835 26.5546 7.4664C26.4993 7.32629 26.3837 7.21859 26.2401 7.17322C25.7335 7.01325 25.1369 7.10997 24.6031 7.2692C24.0504 7.43409 23.4728 7.69504 22.9575 7.9617C22.4396 8.22975 21.97 8.51124 21.6307 8.72498C21.4847 8.81696 21.3622 8.89681 21.2696 8.95822C19.9181 8.60179 18.4798 8.41816 17.0548 8.41816C15.6298 8.41816 14.1913 8.60183 12.8397 8.95832C12.7471 8.89708 12.6245 8.81742 12.4785 8.72563C12.1393 8.51246 11.6697 8.23168 11.1518 7.96412C10.6366 7.69793 10.0593 7.43732 9.50681 7.27218C8.9733 7.1127 8.37756 7.01524 7.87167 7.17257C7.72727 7.21748 7.61095 7.32534 7.55528 7.46594C6.69329 9.64293 7.02976 11.4102 7.27285 12.1916C6.80244 12.7315 6.42536 13.2586 6.1623 13.8715C5.86135 14.5728 5.72419 15.3515 5.72419 16.342C5.72419 19.7421 6.7276 21.7121 8.34868 22.8518C9.67041 23.781 11.3411 24.1043 12.9657 24.3085C12.7052 24.7352 12.4975 25.2574 12.3779 25.8744C11.9156 26.057 11.2533 26.2356 10.5667 26.1742C9.78656 26.1044 8.93052 25.7236 8.26312 24.5472L8.26156 24.5445C7.72612 23.6143 6.96969 23.1096 6.3536 22.8399C6.04616 22.7053 5.77128 22.628 5.57083 22.584C5.47034 22.5619 5.38778 22.548 5.3282 22.5395C5.29839 22.5353 5.27425 22.5323 5.25641 22.5304L5.23442 22.5281L5.2271 22.5274L5.22437 22.5272L5.22325 22.5271L5.22275 22.5271ZM7.3621 25.4726C7.37299 25.4883 7.38463 25.503 7.39685 25.5169C7.44403 25.5314 7.53428 25.5407 7.62617 25.4907C7.62764 25.4899 7.6291 25.4891 7.63057 25.4882L7.60487 25.4566L7.52551 25.3589L7.52535 25.3587L7.51492 25.3459L7.43067 25.2422C7.361 25.2988 7.33573 25.3704 7.32974 25.4197C7.33486 25.4294 7.34038 25.439 7.3463 25.4485C7.35124 25.4565 7.35646 25.4645 7.36196 25.4724C7.362 25.4725 7.36205 25.4725 7.3621 25.4726ZM7.47689 25.2095C7.48084 25.2071 7.48478 25.2048 7.4887 25.2026C7.50786 25.2339 7.52718 25.2648 7.54664 25.2953C7.55145 25.3028 7.55627 25.3103 7.5611 25.3178C7.56349 25.3215 7.56588 25.3252 7.56828 25.3289C7.56832 25.3289 7.56836 25.329 7.56841 25.3291C7.59912 25.3764 7.63019 25.4225 7.6616 25.4677C7.65894 25.4698 7.65623 25.4719 7.65346 25.474C7.64725 25.4782 7.64104 25.4822 7.63483 25.4858L7.57231 25.4045L7.53315 25.3536L7.53301 25.3534L7.5233 25.3408L7.44111 25.2339C7.44674 25.2296 7.45238 25.2255 7.45802 25.2216C7.46432 25.2173 7.47062 25.2133 7.47689 25.2095ZM5.93148 23.6241L5.92967 23.6276C5.93021 23.6265 5.93075 23.6255 5.9313 23.6244L5.93148 23.6241ZM6.63099 24.4226C6.64732 24.4622 6.67211 24.5024 6.70503 24.5405L6.82399 24.4341L6.83874 24.4193L6.85484 24.4032L6.86512 24.393L6.88061 24.3775C6.83233 24.3303 6.78341 24.2856 6.73411 24.2435C6.73088 24.2465 6.72775 24.2495 6.7247 24.2525C6.72199 24.2553 6.71934 24.258 6.71675 24.2607C6.71604 24.2615 6.71533 24.2623 6.71463 24.263C6.6661 24.3156 6.64198 24.3731 6.63099 24.4226ZM6.72133 24.5573C6.75824 24.592 6.79993 24.6198 6.84226 24.638C6.84388 24.6377 6.8455 24.6373 6.84713 24.637C6.8877 24.6282 6.92889 24.6111 6.96657 24.5855C6.97669 24.5786 6.98656 24.5712 6.99609 24.5631C6.99933 24.56 7.00248 24.557 7.00554 24.5539C7.00826 24.5512 7.01091 24.5485 7.01349 24.5457C7.0142 24.545 7.01491 24.5442 7.01561 24.5435C7.01948 24.5393 7.02319 24.535 7.02675 24.5308C6.98345 24.482 6.93938 24.4356 6.89475 24.3914C6.8935 24.3901 6.89224 24.3889 6.89099 24.3877L6.8754 24.4032L6.86512 24.4135L6.84769 24.431L6.72133 24.5573ZM5.91472 23.7396C5.93337 23.7962 5.98639 23.852 6.06394 23.8943L6.09892 23.8243C6.04934 23.7997 6.00046 23.7769 5.95255 23.7559C5.93986 23.7504 5.92725 23.7449 5.91472 23.7396ZM6.11696 23.9221L6.14004 23.8452C6.17546 23.8635 6.21119 23.8827 6.24715 23.903C6.23665 23.9162 6.22685 23.9296 6.21772 23.9432C6.1848 23.9434 6.15026 23.9365 6.11696 23.9221ZM8.29093 26.2547C8.29573 26.2483 8.30088 26.2419 8.30639 26.2355C8.31039 26.2312 8.31444 26.2271 8.31851 26.2232C8.346 26.2482 8.37363 26.2727 8.40141 26.2966C8.40643 26.3009 8.41147 26.3052 8.4165 26.3095C8.41786 26.3106 8.41921 26.3118 8.42056 26.3129C8.42212 26.3142 8.42367 26.3156 8.42523 26.3169C8.42631 26.3178 8.4274 26.3187 8.42848 26.3196C8.45973 26.346 8.49114 26.3717 8.52272 26.3967C8.52036 26.4 8.51791 26.4032 8.51537 26.4065C8.51063 26.4126 8.50557 26.4187 8.50016 26.4247C8.49955 26.4254 8.49894 26.4261 8.49832 26.4267C8.48428 26.4397 8.46996 26.4507 8.45565 26.4599C8.38033 26.5086 8.30549 26.5093 8.27541 26.5052C8.26579 26.5039 8.25776 26.5021 8.25116 26.5001C8.24596 26.4986 8.24164 26.4969 8.23814 26.4953C8.2379 26.4952 8.23767 26.4951 8.23745 26.495C8.2367 26.4947 8.236 26.4944 8.23533 26.494C8.23422 26.4917 8.23313 26.489 8.23209 26.4859C8.23093 26.4824 8.22983 26.4783 8.22883 26.4734C8.22631 26.4612 8.22199 26.4316 8.23024 26.3889C8.23692 26.3543 8.25338 26.3053 8.28995 26.256C8.29027 26.2556 8.2906 26.2551 8.29093 26.2547ZM8.2259 26.4882C8.22592 26.4882 8.22619 26.4884 8.22671 26.4889L8.2259 26.4882ZM9.48117 26.9878C9.48536 26.9738 9.49018 26.9608 9.49546 26.9487C9.52762 26.9608 9.55985 26.9724 9.5921 26.9835C9.59533 26.9846 9.59856 26.9857 9.60179 26.9868L9.59156 27.0209L9.58214 27.0523L9.57072 27.0903L9.5235 27.2478C9.52235 27.2465 9.52114 27.2451 9.51987 27.2435C9.50304 27.2232 9.44773 27.1382 9.47428 27.0146C9.47615 27.0058 9.47843 26.9969 9.48117 26.9878ZM9.59856 27.023L9.60776 26.9888C9.61808 26.9923 9.62839 26.9957 9.63871 26.9991C9.66877 27.009 9.69886 27.0184 9.72897 27.0274C9.72763 27.0381 9.72571 27.0491 9.72312 27.0604C9.72032 27.0726 9.71673 27.0851 9.71225 27.0979C9.67167 27.2138 9.58869 27.2493 9.57444 27.2545C9.55746 27.2606 9.54717 27.2604 9.53888 27.2587C9.53829 27.2586 9.53771 27.2584 9.53714 27.2583C9.53653 27.2581 9.53593 27.258 9.53534 27.2578L9.5427 27.2305L9.58993 27.055L9.59856 27.023ZM12.1801 27.0891C12.1749 27.0543 12.1756 27.0228 12.1798 26.9949C12.2109 26.9862 12.2416 26.9773 12.2719 26.9683L12.2964 27.0698L12.2966 27.0716L12.1801 27.0891ZM12.2947 27.0536L12.2746 26.9675C12.2782 26.9664 12.2819 26.9653 12.2855 26.9642L12.2947 27.0536ZM12.3045 26.9584C12.3328 26.9498 12.3608 26.9411 12.3883 26.9322C12.4113 26.9617 12.4322 27.0003 12.4439 27.0495L12.3306 27.0665L12.3045 26.9584ZM12.1807 27.0929L12.2969 27.0746L12.2996 27.1003L12.1854 27.1174C12.1836 27.1096 12.1821 27.1014 12.1807 27.0929ZM12.1864 27.1218L12.3002 27.107L12.3211 27.3089C12.3207 27.3087 12.3203 27.3085 12.3198 27.3083C12.3123 27.3046 12.2186 27.2559 12.1864 27.1218ZM12.3856 27.2946L12.3391 27.1019L12.4506 27.0874C12.4562 27.13 12.4509 27.1743 12.4361 27.2141C12.4219 27.2523 12.4024 27.2774 12.389 27.2912C12.3879 27.2924 12.3867 27.2935 12.3856 27.2946ZM12.3374 27.0947L12.3312 27.0692L12.4443 27.0513C12.4462 27.0598 12.4479 27.0687 12.4493 27.0779L12.3374 27.0947Z" fill="#D1BB1E" fill-opacity="0.3" stroke="#D1BB1E" stroke-linejoin="round"/>
</svg>
