<svg width="36" height="36" viewBox="0 0 36 36" fill="none" xmlns="http://www.w3.org/2000/svg">
<path d="M1 1V35H35V1H1ZM19.5027 27.517C19.5027 30.8259 17.5598 32.3362 14.729 32.3362C12.1714 32.3362 10.6915 31.0156 9.93259 29.4143L12.5357 27.8433C13.0366 28.7313 13.492 29.4826 14.5924 29.4826C15.6397 29.4826 16.3076 29.0728 16.3076 27.4714V16.6112H19.5027V27.517ZM27.0616 32.3362C24.0942 32.3362 22.1741 30.9246 21.2406 29.0728L23.8438 27.5701C24.5268 28.6857 25.4223 29.5129 26.9933 29.5129C28.3138 29.5129 29.1638 28.8527 29.1638 27.9344C29.1638 26.8415 28.2987 26.4545 26.8339 25.8094L26.0371 25.4679C23.7299 24.4888 22.2045 23.2518 22.2045 20.6487C22.2045 18.2504 24.0335 16.429 26.8795 16.429C28.9134 16.429 30.3705 17.1348 31.4179 18.9866L28.9286 20.5804C28.3821 19.6013 27.7902 19.2143 26.8719 19.2143C25.9384 19.2143 25.3464 19.8063 25.3464 20.5804C25.3464 21.5366 25.9384 21.9237 27.3121 22.5232L28.1089 22.8647C30.8259 24.0259 32.3513 25.2174 32.3513 27.8888C32.3513 30.7576 30.0897 32.3362 27.0616 32.3362Z" fill="#FC423D" fill-opacity="0.5" stroke="#FC423D" stroke-linejoin="round"/>
</svg>
