<svg width="34" height="35" viewBox="0 0 34 35" fill="none" xmlns="http://www.w3.org/2000/svg">
<path d="M1.10846 21.5731L1.10843 21.573C0.311844 18.3902 0.286579 16.0572 1.09743 13.6403L1.09772 13.6394C1.50696 12.4122 1.90538 11.472 2.45141 10.8357C2.9686 10.2329 3.63628 9.8823 4.67594 9.8823H16.8336C17.1097 9.8823 17.3336 9.65844 17.3336 9.3823V8.35377C17.3336 8.07763 17.1097 7.85377 16.8336 7.85377H9.23608V5.27575C9.23608 4.27716 9.65897 3.5289 10.3256 2.94685C11.0065 2.35244 11.9417 1.93444 12.927 1.6497C15.9021 0.793205 18.2715 0.924797 20.753 1.649C22.8533 2.26502 24.4463 3.44364 24.4463 5.27575V12.9746C24.4463 14.9229 22.825 16.5811 20.8937 16.5811H12.7886C9.8086 16.5811 7.21915 19.1516 7.21915 22.2086V25.2933H4.67594C3.64038 25.2933 2.90973 24.9153 2.359 24.2898C1.79034 23.6439 1.39236 22.7084 1.10846 21.5731ZM14.3055 4.7735H14.3056V4.76906C14.3056 3.65068 13.3959 2.72626 12.2802 2.72626C11.1568 2.72626 10.2548 3.64314 10.2548 4.76906C10.2548 5.88902 11.1584 6.80428 12.2802 6.80428C13.3951 6.80428 14.2956 5.89671 14.3055 4.7735ZM21.1787 33.6123L21.1785 33.6124C18.8005 34.0332 15.9057 34.0563 13.2425 33.6191C11.2029 33.2752 9.60794 31.7832 9.60794 29.9074V22.2011C9.60794 20.2148 11.1913 18.5945 13.1605 18.5945H21.2656C24.2959 18.5945 26.8351 16.0193 26.8351 13.0729V9.8823H29.1202C30.1658 9.8823 30.9705 10.2554 31.587 10.8853C32.2147 11.5267 32.6697 12.459 32.9447 13.5983C33.326 15.1817 33.5036 16.4235 33.5 17.6374C33.4964 18.8513 33.3114 20.0596 32.9448 21.5769L32.9447 21.5775C32.3555 24.0297 30.4985 25.2933 28.3613 25.2933H17.2055C16.9293 25.2933 16.7055 25.5172 16.7055 25.7933V26.8219C16.7055 27.098 16.9293 27.3219 17.2055 27.3219H24.8181V29.8999C24.8181 31.0418 24.6609 31.7856 24.1982 32.3268C23.7291 32.8754 22.8602 33.3158 21.1787 33.6123ZM23.7994 30.4186H23.7995V30.4141C23.7995 29.2942 22.8958 28.3789 21.7741 28.3789C20.6523 28.3789 19.7487 29.2942 19.7487 30.4141C19.7487 31.5325 20.6584 32.4569 21.7741 32.4569C22.9013 32.4569 23.7895 31.5369 23.7994 30.4186Z" fill="#FC423D" fill-opacity="0.5" stroke="#FC423D" stroke-linejoin="round"/>
</svg>
