<svg width="34" height="34" viewBox="0 0 34 34" fill="none" xmlns="http://www.w3.org/2000/svg">
<path d="M30.2102 9.67107C30.0711 9.77266 29.994 9.9387 30.0063 10.1105C30.0264 10.3918 30.0266 10.676 30.0266 10.981C30.0266 19.9778 23.1818 30.3071 10.7005 30.3071C7.57511 30.3071 4.63159 29.5725 2.02604 28.2613C5.26581 28.1867 8.24628 27.0595 10.6422 25.1816C10.8085 25.0513 10.8749 24.8304 10.8081 24.63C10.7412 24.4295 10.5556 24.2927 10.3443 24.2882C7.78048 24.234 5.59282 22.7169 4.58413 20.5442C4.76415 20.5565 4.94727 20.5634 5.13453 20.5634C5.80513 20.5634 6.47296 20.471 7.0937 20.3102C7.31909 20.2518 7.47433 20.0455 7.46809 19.8128C7.46186 19.58 7.2958 19.3824 7.06761 19.3361C4.33555 18.7823 2.23423 16.5279 1.92105 13.7173C2.71996 14.0485 3.59621 14.2507 4.51153 14.2852C4.7352 14.2936 4.93721 14.1524 5.0061 13.9394C5.07498 13.7265 4.99395 13.4937 4.80772 13.3695C3.06451 12.2073 1.92382 10.2249 1.92382 7.98222C1.92382 7.04013 2.12015 6.16111 2.47487 5.36216C5.98352 9.36836 11.0576 11.9613 16.7149 12.2569C16.8698 12.265 17.0196 12.2008 17.1206 12.0831C17.2215 11.9654 17.2621 11.8075 17.2305 11.6557C17.1285 11.166 17.0684 10.6611 17.0684 10.1612C17.0684 6.5962 19.9522 3.69293 23.5367 3.69293C25.4004 3.69293 27.0818 4.47384 28.2631 5.73522C28.3804 5.86046 28.5537 5.9168 28.7222 5.88449C29.864 5.66553 30.9726 5.3045 32.0104 4.82413C31.4608 5.76582 30.6757 6.55741 29.7309 7.12146C29.5292 7.24189 29.4385 7.48653 29.513 7.70935C29.5875 7.93216 29.8071 8.07305 30.0407 8.0479C30.8954 7.9559 31.7328 7.77932 32.5395 7.53686C31.8444 8.32994 31.0621 9.04897 30.2102 9.67107Z" fill="#D1BB1E" fill-opacity="0.3" stroke="#D1BB1E" stroke-linejoin="round"/>
</svg>
