<svg width="34" height="24" viewBox="0 0 34 24" fill="none" xmlns="http://www.w3.org/2000/svg">
<path d="M32.8063 3.86886L32.8064 3.86914C33.1466 5.147 33.323 7.15804 33.4119 8.88536C33.4559 9.74157 33.478 10.5155 33.489 11.0754C33.4945 11.3552 33.4973 11.5814 33.4986 11.7372C33.4993 11.8151 33.4997 11.8755 33.4998 11.9162L33.5 11.9622L33.5 11.9737L33.5 11.9765V11.9771V11.9773V11.9774V11.978L33.5 11.9808L33.5 11.9923L33.4998 12.0384C33.4997 12.0791 33.4993 12.1394 33.4986 12.2173C33.4973 12.3732 33.4945 12.5993 33.489 12.8791C33.478 13.439 33.4559 14.213 33.4119 15.0692C33.323 16.7965 33.1466 18.8075 32.8064 20.0854L32.8063 20.0857C32.4631 21.3778 31.4513 22.3592 30.1537 22.7083L30.1534 22.7084C29.5428 22.8731 28.4263 23.0051 27.0528 23.1059C25.6934 23.2057 24.1239 23.2725 22.6325 23.3171C21.1419 23.3616 19.7334 23.3839 18.6973 23.3951C18.1793 23.4007 17.7547 23.4034 17.4597 23.4048C17.3122 23.4055 17.1971 23.4059 17.1189 23.406L17.03 23.4062L17.0074 23.4062L17.0018 23.4062H17.0004H17.0001L17 23.9062L16.9999 23.4062H16.9996H16.9982L16.9925 23.4062L16.97 23.4062L16.8811 23.406C16.8029 23.4059 16.6878 23.4055 16.5403 23.4048C16.2453 23.4034 15.8207 23.4007 15.3027 23.3951C14.2666 23.3839 12.8581 23.3616 11.3675 23.3171C9.87609 23.2725 8.30657 23.2057 6.94721 23.1059C5.57371 23.0051 4.45724 22.8731 3.84661 22.7084L3.84631 22.7083C2.54866 22.3592 1.53686 21.3778 1.19371 20.0857L1.19363 20.0854C0.853445 18.8075 0.677043 16.7965 0.588147 15.0692C0.544082 14.213 0.52203 13.439 0.511004 12.8791C0.505493 12.5993 0.502742 12.3732 0.501368 12.2173C0.500682 12.1394 0.500339 12.0791 0.500169 12.0384L0.500021 11.9923L0.500002 11.9808L0.5 11.978L0.5 11.9774V11.9773V11.9771L0.5 11.9765L0.500002 11.9737L0.500021 11.9622L0.500169 11.9162C0.500339 11.8755 0.500682 11.8151 0.501368 11.7372C0.502742 11.5814 0.505493 11.3552 0.511004 11.0754C0.52203 10.5155 0.544082 9.74157 0.588147 8.88536C0.677043 7.15804 0.853445 5.147 1.19363 3.86914L1.19371 3.86886C1.53915 2.56816 2.5574 1.54469 3.84633 1.1979L3.84661 1.19782C4.45724 1.03315 5.57371 0.901169 6.94721 0.800328C8.30657 0.700525 9.87609 0.633753 11.3675 0.58916C12.8581 0.544592 14.2666 0.522295 15.3027 0.511144C15.8207 0.50557 16.2453 0.502784 16.5403 0.501391C16.6878 0.500695 16.8029 0.500347 16.8811 0.500173L16.97 0.500022L16.9925 0.500003L16.9982 0.5L16.9996 0.5L16.9999 0.5L17 0L17.0001 0.5L17.0004 0.5L17.0018 0.5L17.0074 0.500003L17.03 0.500022L17.1189 0.500173C17.1971 0.500347 17.3122 0.500695 17.4597 0.501391C17.7547 0.502784 18.1794 0.50557 18.6973 0.511144C19.7334 0.522295 21.142 0.544592 22.6325 0.58916C24.1239 0.633753 25.6935 0.700525 27.0528 0.800328C28.4263 0.901169 29.5428 1.03315 30.1534 1.19782L30.1537 1.1979C31.4426 1.54464 32.4608 2.56815 32.8063 3.86886ZM13.0227 17.0326C13.0227 17.2107 13.1174 17.3753 13.2713 17.4648C13.4252 17.5544 13.6152 17.5553 13.7699 17.4672L22.6563 12.412C22.8125 12.3231 22.909 12.1572 22.909 11.9774C22.909 11.7976 22.8125 11.6317 22.6563 11.5428L13.7699 6.48732C13.6152 6.39927 13.4253 6.40017 13.2713 6.48969C13.1174 6.57922 13.0227 6.74384 13.0227 6.92191V17.0326Z" fill="#D1BB1E" fill-opacity="0.3" stroke="#D1BB1E" stroke-linejoin="round"/>
</svg>
