<?xml version="1.0" encoding="utf-8"?>
<!-- Generator: Adobe Illustrator 16.0.0, SVG Export Plug-In . SVG Version: 6.00 Build 0)  -->
<!DOCTYPE svg PUBLIC "-//W3C//DTD SVG 1.1//EN" "http://www.w3.org/Graphics/SVG/1.1/DTD/svg11.dtd">
<svg version="1.1" xmlns="http://www.w3.org/2000/svg" xmlns:xlink="http://www.w3.org/1999/xlink" x="0px" y="0px" width="1450px"
	 height="180px" viewBox="0 0 1450 180" enable-background="new 0 0 1450 180" xml:space="preserve">
<g id="Layer_1" display="none">
	
		<rect x="-335.5" y="321.5" display="inline" opacity="0.1" fill="#FFFFFF" stroke="#000000" stroke-miterlimit="10" width="116" height="156"/>
	
		<rect x="-211.5" y="321.5" display="inline" opacity="0.1" fill="#FFFFFF" stroke="#000000" stroke-miterlimit="10" width="116" height="156"/>
	<g display="inline">
		<rect x="258.5" y="-451.5" opacity="0.1" fill="#FFFFFF" stroke="#000000" stroke-miterlimit="10" width="116" height="156"/>
		<rect x="383.5" y="-451.5" opacity="0.1" fill="#FFFFFF" stroke="#000000" stroke-miterlimit="10" width="116" height="156"/>
		<rect x="507.5" y="-451.5" opacity="0.1" fill="#FFFFFF" stroke="#000000" stroke-miterlimit="10" width="116" height="156"/>
		<rect x="632.5" y="-451.5" opacity="0.1" fill="#FFFFFF" stroke="#000000" stroke-miterlimit="10" width="116" height="156"/>
		<rect x="756.5" y="-451.5" opacity="0.1" fill="#FFFFFF" stroke="#000000" stroke-miterlimit="10" width="116" height="156"/>
		<rect x="881.5" y="-451.5" opacity="0.1" fill="#FFFFFF" stroke="#000000" stroke-miterlimit="10" width="116" height="156"/>
		<rect x="1006.5" y="-451.5" opacity="0.1" fill="#FFFFFF" stroke="#000000" stroke-miterlimit="10" width="116" height="156"/>
		<rect x="1130.5" y="-451.5" opacity="0.1" fill="#FFFFFF" stroke="#000000" stroke-miterlimit="10" width="116" height="156"/>
		<rect x="1255.5" y="-451.5" opacity="0.1" fill="#FFFFFF" stroke="#000000" stroke-miterlimit="10" width="116" height="156"/>
	</g>
	<rect x="-119" y="232" display="inline" fill="#FFFFFF" width="58" height="156"/>
	<g display="inline">
		<g>
			<rect x="-42" y="230" fill="#A67C52" width="115" height="155"/>
			<path d="M72,231v154H-42V231H72 M73,230H-43v156H73V230L73,230z"/>
		</g>
		<rect x="-43" y="230" fill="#B3B3B3" width="58" height="156"/>
		<rect x="44" y="230" fill="#FFFFFF" width="29" height="156"/>
	</g>
	<g display="inline">
		<rect x="-45" y="416" fill="#A67C52" width="115" height="35"/>
		<path d="M69,417v34H-45v-34H69 M70,416H-46v36H70V416L70,416z"/>
	</g>
	<rect x="-46" y="416" display="inline" fill="#B3B3B3" width="58" height="36"/>
	<g display="inline">
		<rect x="-96" y="-438" opacity="0.5" fill="#F7931E" width="108" height="144"/>
		<rect x="-42" y="-438" opacity="0.5" fill="#F7931E" width="54" height="144"/>
		<rect x="-96" y="-438" opacity="0.5" fill="#F7931E" width="108" height="9"/>
		<rect x="-96" y="-303" opacity="0.5" fill="#F7931E" width="108" height="9"/>
	</g>
	<g display="inline">
		<rect x="-259" y="26" opacity="0.5" fill="#F7931E" width="108" height="144"/>
		<rect x="-205" y="26" opacity="0.5" fill="#F7931E" width="54" height="144"/>
		<rect x="-259" y="26" opacity="0.5" fill="#F7931E" width="108" height="9"/>
		<rect x="-259" y="161" opacity="0.5" fill="#F7931E" width="108" height="9"/>
	</g>
	<g display="inline">
		<g>
			<rect x="110" y="240" fill="#A67C52" width="115" height="155"/>
			<path d="M224,241v154H110V241H224 M225,240H109v156h116V240L225,240z"/>
		</g>
		<rect x="109" y="240" fill="#B3B3B3" width="58" height="156"/>
		<rect x="196" y="240" fill="#FFFFFF" width="29" height="156"/>
	</g>
	<g display="inline">
		<g>
			<rect x="245" y="240" fill="#A67C52" width="115" height="155"/>
			<path d="M359,241v154H245V241H359 M360,240H244v156h116V240L360,240z"/>
		</g>
		<rect x="244" y="240" fill="#B3B3B3" width="58" height="156"/>
		<rect x="331" y="240" fill="#FFFFFF" width="29" height="156"/>
	</g>
	<path display="inline" fill="#2D2720" d="M-262.75-226H-317v144h108v-72L-262.75-226z M-236-91h-27v-126l27,36V-91z"/>
	<path display="inline" fill="#2D2720" d="M228-226h-54v144h54v-36h27v36h27v-72.333L228-226z M255-154h-27v-63.333l27,36V-154z"/>
	<polygon display="inline" fill="#2D2720" points="152,-226 134,-226 134,-154 107,-226 53,-226 53,-82 107,-82 107,-154 134,-82 
		161,-82 161,-221 	"/>
	<polyline display="inline" fill="#2D2720" points="-76,-235 -76,-91 -22,-91 -22,-163 5,-91 32,-91 32,-230 23,-235 5,-235 5,-163 
		-22,-235 	"/>
	<g display="inline">
		<rect x="539" y="-226" fill="#2D2720" width="54" height="144"/>
		<rect x="620" y="-217" fill="#2D2720" width="27" height="135"/>
		<polygon fill="#2D2720" points="539,-226 638,-226 647,-221.5 647,-217 647,-217 539,-217 		"/>
		<rect x="539" y="-91" fill="#2D2720" width="108" height="9"/>
	</g>
	<g display="inline">
		<polygon fill="#2D2720" points="488,-73 434,-73 434,-208 479.019,-208 488,-204 		"/>
		<polygon fill="#2D2720" points="407,-217 506,-217 515,-212.5 515,-208 407,-208 		"/>
		<path fill="#2D2720" d="M479.021-208"/>
	</g>
	<g display="inline">
		<rect x="830" y="-226" fill="#2D2720" width="54" height="144"/>
		<polygon fill="#2D2720" points="803,-226 902.083,-226 911,-221.5 911,-217 803,-217 		"/>
		<rect x="803" y="-91" fill="#2D2720" width="108" height="9"/>
	</g>
	<g display="inline">
		<polygon fill="#2D2720" points="668,-226 767.063,-226 776,-221.5 776,-217 668,-217 		"/>
		<polygon fill="#2D2720" points="668,-127 767.125,-127 776,-122.5 776,-118 668,-118 		"/>
		<rect x="668" y="-91" fill="#2D2720" width="108" height="9"/>
		<rect x="668" y="-226" fill="#2D2720" width="54" height="102"/>
		<rect x="749" y="-118" fill="#2D2720" width="27" height="36"/>
		<path fill="#2D2720" d="M767.125-127"/>
	</g>
	<polygon display="inline" fill="#2D2720" points="344,-73 290,-73 290,-217 335.084,-217 344,-213 	"/>
	<polygon display="inline" fill="#2D2720" points="-205,170 -259,170 -259,26 -213.916,26 -205,30 	"/>
	<polyline display="inline" fill="#2D2720" points="389,-320.977 362,-222 389,-222 416,-320.977 	"/>
	<polyline display="inline" fill="#2D2720" points="367,-102.031 394,-57 421,-57 394,-102.031 	"/>
	<g display="inline">
		<polygon fill="#2D2720" points="1313,-95 1259,-95 1259,-239 1304.125,-238.977 1313,-235 		"/>
		<polyline fill="#2D2720" points="1340,-238.977 1313,-140 1340,-140 1367,-238.977 		"/>
		<polyline fill="#2D2720" points="1313,-140.031 1340,-95 1367,-95 1340,-140.031 		"/>
	</g>
	<path display="inline" fill="#2D2720" d="M388.969-217"/>
	<path display="inline" fill="#2D2720" d="M-161.167-429H-217v144h54v-36h27v36h27v-73.334L-161.167-429z M-136-357h-27v-64.333
		l27,36V-357z"/>
	<polyline display="inline" opacity="0.5" points="-182,234 -182,390 -66,390 -66,312 -95,234 	"/>
	<path display="inline" fill="#2D2720" d="M173.25,478H119v144h108v-72L173.25,478z M200,613h-27V487l27,36V613z"/>
	<path display="inline" fill="#2D2720" d="M289.5,478H235v144h54v-36h27v36h27v-72.334L289.5,478z M316,550h-27v-63.333l27,35.999
		V550z"/>
	<path display="inline" fill="#2D2720" d="M686,478h-54v144h54v-36h27v36h27v-72.334L686,478z M713,550h-27v-63.333l27,35.999V550z"
		/>
	<polyline display="inline" fill="#2D2720" points="515,478 515,622 569,622 569,550 596,622 623,622 623,483 614,478 596,478 
		596,550 569,478 	"/>
	<polyline display="inline" fill="#2D2720" points="352,478 352,622 406,622 406,550 433,622 460,622 460,483 451,478 433,478 
		433,550 406,478 	"/>
	<rect x="1037" y="487" display="inline" fill="none" width="27" height="126"/>
	<path display="inline" fill="#2D2720" d="M1082,478h-45h-54v9v126v9h54h27h27v-9V487v-4.5L1082,478z M1064,613h-27V487h27V613z"/>
	<polygon display="inline" fill="#2D2720" points="974,482.5 965,478 866,478 866,487 893,487 893,622 947,622 947,491 938.019,487 
		974,487 	"/>
	<polygon display="inline" fill="#2D2720" points="1326,487 1326,482.5 1317.083,478 1299,478 1245,478 1218,478 1218,487 1245,487 
		1245,613 1218,613 1218,622 1245,622 1299,622 1326,622 1326,613 1299,613 1299,487 	"/>
	<polygon display="inline" fill="#2D2720" points="1208,487 1208,482.5 1199.063,478 1154,478 1100,478 1100,487 1100,577 1100,580 
		1100,586 1181,586 1181,613 1100,613 1100,622 1181,622 1208,622 1208,613 1208,586 1208,581.5 1199.125,577 1154,577 1154,487 	
		"/>
	<g display="inline">
		<polygon fill="#2D2720" points="749,478 749,622 803,622 803,577 803,576.969 803,482 794.125,478.023 		"/>
		<polygon fill="#2D2720" points="857,478 830,478 803.009,577 803.019,577 830,622 857,622 830.006,576.967 		"/>
	</g>
	<polyline display="inline" opacity="0.2" fill="#2D2720" points="-317,134 -317,170 -344,170 -371,125 -371,170 -425,170 -425,26 
		-371,26 -371,98 -344,26 -317,26 -317,98 -344,98 	"/>
	<polyline display="inline" fill="#2D2720" points="-159.958,26 -205,170 -196,170 -151,26 	"/>
	<polyline display="inline" fill="#2D2720" points="-178.083,169.754 -199.447,152 -169,152 -151,170 	"/>
</g>
<g id="Layer_2">
	<path d="M-119-925h-56v144h54v-36h27v36h27v-74.334L-119-925z M-94-826h-27v-92.333l27,36V-826z"/>
	<path d="M267.917-925H212v144h54v-36h27v36h27v-74.334L267.917-925z M293-826h-27v-92.333l27,36V-826z"/>
	<path d="M501.916-925H446v144h54v-36h27v36h27v-74.334L501.916-925z M527-826h-27v-92.333l27,36V-826z"/>
	<polygon points="43,-925 23,-925 23,-855 -2,-925 -58,-925 -58,-781 -4,-781 -4,-855 25,-781 50,-781 50,-922 	"/>
	<polygon points="196,-925 176,-925 176,-855 151,-925 95,-925 95,-781 149,-781 149,-855 178,-781 203,-781 203,-922 	"/>
	<polygon points="1135,-916 1135,-922.5 1128.083,-925 1027,-925 1027,-916 1054,-916 1054,-790 1027,-790 1027,-781 1056,-781 
		1110,-781 1135,-781 1135,-790 1108,-790 1108,-914 1101,-916 1101.041,-916 	"/>
	<g>
		<polygon points="385,-828.031 385,-828 385.006,-828.021 		"/>
		<polygon points="383,-923 376.084,-925 329,-925 329,-781 383,-781 383,-828 383,-828.031 		"/>
		<polygon points="439,-925 412,-925 385.009,-826 385,-826 385.006,-826.006 385,-826 385.019,-826 412,-781 439,-781 
			412.006,-826.033 		"/>
	</g>
	<path d="M-234.5-925H-292v144h108v-75L-234.5-925z M-211-790h-27v-129l27,36V-790z"/>
	<path d="M778.375-925h-45H676v6v126v12h57.375h27H784v-12v-126v-4.5L778.375-925z M757-790h-27v-126h27V-790z"/>
	<polygon points="667,-923.5 661,-925 559,-925 559,-916 586,-916 586,-781 640,-781 640,-915 634.019,-916 667,-916 	"/>
	<polygon points="901,-916 901,-923.5 895.063,-925 850,-925 793,-925 793,-919 793,-829 793,-826 793,-817 874,-817 874,-790 
		793,-790 793,-781 877,-781 901,-781 901,-793 901,-820 901,-824.5 895.125,-826 847,-826 847,-916 	"/>
	<g>
		<rect x="910" y="-925" width="54" height="144"/>
		<rect x="1009" y="-925" width="9" height="144"/>
		<rect x="964" y="-826" width="45" height="9"/>
	</g>
	<g>
		<path d="M1304-634h-56v144h54v-36h27v36h27v-74.334L1304-634z M1329-535h-27v-92.333l27,36V-535z"/>
		<path d="M1690.916-634H1635v144h54v-36h27v36h27v-74.334L1690.916-634z M1716-535h-27v-92.333l27,36V-535z"/>
		<path d="M1924.916-634H1869v144h54v-36h27v36h27v-74.334L1924.916-634z M1950-535h-27v-92.333l27,36V-535z"/>
		<polygon points="1466,-634 1446,-634 1446,-564 1421,-634 1365,-634 1365,-490 1419,-490 1419,-564 1448,-490 1473,-490 
			1473,-634 		"/>
		<polygon points="1619,-634 1599,-634 1599,-564 1574,-634 1518,-634 1518,-490 1572,-490 1572,-564 1601,-490 1626,-490 
			1626,-634 		"/>
		<polyline points="2558,-625 2558,-634 2551.083,-634 2450,-634 2450,-625 2477,-625 2477,-499 2450,-499 2450,-490 2479,-490 
			2533,-490 2558,-490 2558,-499 2531,-499 2531,-623 2531,-625 		"/>
		<g>
			<polygon points="1808,-537.031 1808,-537 1808.006,-537.021 			"/>
			<polygon points="1806,-634 1799.084,-634 1752,-634 1752,-490 1806,-490 1806,-537 1806,-537.031 			"/>
			<polygon points="1862,-634 1835,-634 1808.009,-535 1808,-535 1808.006,-535.006 1808,-535 1808.019,-535 1835,-490 1862,-490 
				1835.006,-535.033 			"/>
		</g>
		<path d="M1188.5-634H1131v144h108v-75L1188.5-634z M1212-499h-27v-129l27,36V-499z"/>
		<path d="M2201.375-634h-45H2099v6v126v12h57.375h27H2207v-12v-126v-6H2201.375z M2180-499h-27v-126h27V-499z"/>
		<polygon points="2090,-634 2084,-634 1982,-634 1982,-625 2009,-625 2009,-490 2063,-490 2063,-624 2063,-625 2090,-625 		"/>
		<polygon points="2324,-625 2324,-634 2318.063,-634 2273,-634 2216,-634 2216,-628 2216,-538 2216,-535 2216,-526 2297,-526 
			2297,-499 2216,-499 2216,-490 2300,-490 2324,-490 2324,-502 2324,-529 2324,-533.5 2318.125,-535 2270,-535 2270,-625 		"/>
		<g>
			<rect x="2333" y="-634" width="54" height="144"/>
			<rect x="2432" y="-634" width="9" height="144"/>
			<rect x="2387" y="-535" width="45" height="9"/>
		</g>
	</g>
	<g>
		<path fill="#FFFFFF" stroke="#FFFFFF" stroke-linecap="round" stroke-linejoin="round" stroke-miterlimit="10" d="M215.292,17.5
			h-56l-38.584,144h54l9.646-36h27l-9.646,36h27l19.917-74.334L215.292,17.5z M213.766,116.5h-27l24.74-92.583l17.354,36.125
			L213.766,116.5z"/>
		<path fill="#FFFFFF" stroke="#FFFFFF" stroke-linecap="round" stroke-linejoin="round" stroke-miterlimit="10" d="M602.208,17.5
			h-55.916l-38.584,144h54l9.646-36h27l-9.646,36h27l19.917-74.334L602.208,17.5z M600.766,116.5h-27l24.74-92.583l17.354,36.125
			L600.766,116.5z"/>
		<path fill="#FFFFFF" stroke="#FFFFFF" stroke-linecap="round" stroke-linejoin="round" stroke-miterlimit="10" d="M836.208,17.5
			h-55.916l-38.584,144h54l9.646-36h27l-9.646,36h27l19.917-74.334L836.208,17.5z M834.766,116.5h-27l24.74-92.583l17.354,36.125
			L834.766,116.5z"/>
		<polygon fill="#FFFFFF" stroke="#FFFFFF" stroke-linecap="round" stroke-linejoin="round" stroke-miterlimit="10" points="
			377.292,17.5 357.292,17.5 338.536,87.5 332.292,17.5 276.292,17.5 237.708,161.5 291.708,161.5 311.536,87.5 320.708,161.5 
			345.708,161.5 384.292,17.5 		"/>
		<polygon fill="#FFFFFF" stroke="#FFFFFF" stroke-linecap="round" stroke-linejoin="round" stroke-miterlimit="10" points="
			530.292,17.5 510.292,17.5 491.536,87.5 485.292,17.5 429.292,17.5 390.708,161.5 444.708,161.5 464.536,87.5 473.708,161.5 
			498.708,161.5 537.292,17.5 		"/>
		<polygon fill="#FFFFFF" stroke="#FFFFFF" stroke-linecap="round" stroke-linejoin="round" stroke-miterlimit="10" points="
			1443.881,26.5 1446.292,17.5 1439.375,17.5 1338.292,17.5 1335.881,26.5 1362.881,26.5 1329.119,152.5 1302.119,152.5 
			1299.708,161.5 1328.708,161.5 1382.708,161.5 1407.708,161.5 1410.119,152.5 1383.119,152.5 1416.345,28.375 1416.881,26.5 		"/>
		<g>
			<polygon fill="#FFFFFF" stroke="#FFFFFF" stroke-linecap="round" stroke-linejoin="round" stroke-miterlimit="10" points="
				717.292,17.5 710.376,17.5 663.292,17.5 624.708,161.5 678.708,161.5 691.301,114.25 691.31,114.344 			"/>
			<polygon fill="#FFFFFF" stroke="#FFFFFF" stroke-linecap="round" stroke-linejoin="round" stroke-miterlimit="10" points="
				773.292,17.5 746.292,17.5 692.774,116.5 692.766,116.5 692.772,116.494 692.766,116.5 692.784,116.5 707.708,161.5 
				734.708,161.5 719.78,116.467 			"/>
		</g>
		<path fill="#FFFFFF" stroke="#FFFFFF" stroke-linecap="round" stroke-linejoin="round" stroke-miterlimit="10" d="M99.792,17.5
			h-57.5l-38.584,144h108l20.096-75L99.792,17.5z M87.119,152.5h-27L94.685,23.25l17.354,36.125L87.119,152.5z"/>
		<path fill="#FFFFFF" stroke="#FFFFFF" stroke-linecap="round" stroke-linejoin="round" stroke-miterlimit="10" d="M1089.917,17.5
			h-45h-57.625l-1.607,5.75l-33.762,126.125l-3.215,12.125h57.625h27h23.375l3.215-12.25l33.762-125.875l1.607-5.875H1089.917z
			 M1050.119,152.5h-22l33.762-126h22L1050.119,152.5z"/>
		<polygon fill="#FFFFFF" stroke="#FFFFFF" stroke-linecap="round" stroke-linejoin="round" stroke-miterlimit="10" points="
			978.292,17.5 972.292,17.5 870.292,17.5 867.881,26.5 894.881,26.5 858.708,161.5 912.708,161.5 948.613,27.5 948.881,26.5 
			975.881,26.5 		"/>
		<polygon fill="#FFFFFF" stroke="#FFFFFF" stroke-linecap="round" stroke-linejoin="round" stroke-miterlimit="10" points="
			1209.881,26.5 1212.292,17.5 1206.354,17.5 1161.292,17.5 1104.292,17.5 1102.685,23.25 1078.569,113.125 1077.766,116.313 
			1075.354,125.5 1156.354,125.5 1149.119,152.5 1068.119,152.5 1065.708,161.5 1149.708,161.5 1173.708,161.5 1176.923,149.25 
			1184.158,122.125 1185.363,117.813 1179.891,116.5 1131.766,116.5 1155.881,26.5 		"/>
		<g>
			<polygon fill="#FFFFFF" stroke="#FFFFFF" stroke-linecap="round" stroke-linejoin="round" stroke-miterlimit="10" points="
				1236.708,161.5 1182.708,161.5 1221.292,17.5 1275.292,17.5 			"/>
			<polygon fill="#FFFFFF" stroke="#FFFFFF" stroke-linecap="round" stroke-linejoin="round" stroke-miterlimit="10" points="
				1290.708,161.5 1281.708,161.5 1320.292,17.5 1329.292,17.5 			"/>
			<polygon fill="#FFFFFF" stroke="#FFFFFF" stroke-linecap="round" stroke-linejoin="round" stroke-miterlimit="10" points="
				1291.354,125.5 1246.354,125.5 1248.766,116.5 1293.766,116.5 			"/>
		</g>
	</g>
</g>
</svg>
